<svg xmlns="http://www.w3.org/2000/svg" viewBox="0 0 400 500" width="400" height="500">
  <defs>
    <linearGradient id="bgCaballero" x1="0" y1="0" x2="1" y2="1">
      <stop offset="0%" stop-color="#1a2128"/>
      <stop offset="100%" stop-color="#0d0c0b"/>
    </linearGradient>
    <linearGradient id="glassCaballero" x1="0" y1="0" x2="0" y2="1">
      <stop offset="0%" stop-color="#8fa6b3"/>
      <stop offset="100%" stop-color="#3d4c56"/>
    </linearGradient>
  </defs>
  <rect width="400" height="500" fill="url(#bgCaballero)"/>
  <circle cx="200" cy="230" r="140" fill="#7fa8c9" opacity="0.08"/>
  <rect x="180" y="110" width="40" height="20" rx="3" fill="#c8a45c" opacity="0.9"/>
  <path d="M160 130 h80 v20 h-80 z" fill="#e4c988" opacity="0.7"/>
  <path d="M150 150 h100 a8 8 0 0 1 8 8 v220 a16 16 0 0 1 -16 16 h-84 a16 16 0 0 1 -16 -16 v-220 a8 8 0 0 1 8 -8 z" fill="url(#glassCaballero)" opacity="0.92"/>
  <text x="200" y="410" text-anchor="middle" font-family="Georgia, serif" font-size="24" fill="#e4c988" letter-spacing="4">CABALLERO</text>
</svg>
