<svg xmlns="http://www.w3.org/2000/svg" viewBox="0 0 400 500" width="400" height="500">
  <defs>
    <linearGradient id="bgMujeres" x1="0" y1="0" x2="1" y2="1">
      <stop offset="0%" stop-color="#2a1c1e"/>
      <stop offset="100%" stop-color="#0d0c0b"/>
    </linearGradient>
    <linearGradient id="glassMujeres" x1="0" y1="0" x2="0" y2="1">
      <stop offset="0%" stop-color="#f3c9c9"/>
      <stop offset="100%" stop-color="#c88a8a"/>
    </linearGradient>
  </defs>
  <rect width="400" height="500" fill="url(#bgMujeres)"/>
  <circle cx="200" cy="230" r="140" fill="#e08a9b" opacity="0.10"/>
  <path d="M180 120 q20 -20 40 0 v30 h-40 z" fill="#e4c988" opacity="0.85"/>
  <path d="M155 150 h90 a12 12 0 0 1 12 12 v25 a60 60 0 0 1 20 48 v130 a14 14 0 0 1 -14 14 h-126 a14 14 0 0 1 -14 -14 v-130 a60 60 0 0 1 20 -48 v-25 a12 12 0 0 1 12 -12 z" fill="url(#glassMujeres)" opacity="0.92"/>
  <text x="200" y="410" text-anchor="middle" font-family="Georgia, serif" font-size="24" fill="#e4c988" letter-spacing="4">MUJERES</text>
</svg>
